<svg width="200" height="100" viewBox="0 0 200 100" xmlns="http://www.w3.org/2000/svg">
  <defs>
    <radialGradient id="glow" cx="50%" cy="50%" r="50%" fx="50%" fy="50%">
      <stop offset="0%" style="stop-color:#FDE047; stop-opacity:0.8" />
      <stop offset="100%" style="stop-color:#F97316; stop-opacity:0" />
    </radialGradient>
    <filter id="splatter">
      <feTurbulence type="fractalNoise" baseFrequency="0.9" numOctaves="1" seed="2" result="turbulence"/>
      <feDisplacementMap in2="turbulence" in="SourceGraphic" scale="2.5" xChannelSelector="R" yChannelSelector="G"/>
    </filter>
  </defs>
  
  <!-- Bowl with splatter effect -->
  <path d="M 60,75 C 80,95 120,95 140,75 C 130,70 70,70 60,75 Z" fill="#1f1f1f" filter="url(#splatter)" transform="translate(-2, 2)"/>
  <path d="M 60,75 C 80,95 120,95 140,75 C 130,70 70,70 60,75 Z" fill="#0a0a0a"/>

  <!-- Oil / Glow -->
  <ellipse cx="100" cy="74" rx="35" ry="10" fill="#F97316" opacity="0.7"/>
  <ellipse cx="100" cy="73" rx="30" ry="8" fill="#FDE047" opacity="0.9"/>
  
  <!-- Flame -->
  <path d="M 100 70 C 95 60, 95 45, 100 40 C 105 45, 105 60, 100 70 Z" fill="white"/>
  <path d="M 100 68 C 97 60, 97 50, 100 45 C 103 50, 103 60, 100 68 Z" fill="#FDE047"/>

  <!-- Splatter dots -->
  <circle cx="55" cy="78" r="1.5" fill="#1f1f1f" opacity="0.8"/>
  <circle cx="145" cy="72" r="1" fill="#1f1f1f" opacity="0.7"/>
   <path d="M 148 78 C 149 77, 150 78, 149 79" stroke="#1f1f1f" stroke-width="1.5" fill="none" opacity="0.6"/>
</svg>