<svg width="800" height="600" viewBox="0 0 800 600" xmlns="http://www.w3.org/2000/svg">
  <defs>
    <radialGradient id="grad1" cx="50%" cy="50%" r="50%" fx="50%" fy="50%">
      <stop offset="0%" style="stop-color:rgba(253, 232, 232, 0.3);stop-opacity:1" />
      <stop offset="100%" style="stop-color:rgba(239, 224, 189, 0);stop-opacity:0" />
    </radialGradient>
    <filter id="blur1" x="-50%" y="-50%" width="200%" height="200%">
      <feGaussianBlur in="SourceGraphic" stdDeviation="15" />
    </filter>
  </defs>
  <rect width="800" height="600" fill="transparent"/>
  <circle cx="400" cy="300" r="250" fill="url(#grad1)" filter="url(#blur1)" />
  <path d="M 400 200 C 480 200, 480 300, 500 350 C 480 400, 480 500, 400 500 C 320 500, 320 400, 300 350 C 320 300, 320 200, 400 200 Z" fill="none" stroke="#991b1b" stroke-width="1" opacity="0.1" transform="rotate(45 400 350) scale(1.2)"/>
  <path d="M 400 250 C 450 250, 450 325, 470 350 C 450 375, 450 450, 400 450 C 350 450, 350 375, 330 350 C 350 325, 350 250, 400 250 Z" fill="none" stroke="#991b1b" stroke-width="0.5" opacity="0.15" transform="rotate(-30 400 350) scale(0.9)"/>
</svg>
