<svg width="150" height="150" viewBox="0 0 150 150" xmlns="http://www.w3.org/2000/svg">
    <style>.skin{fill:#fcefc7;}.beard{fill:#fff;}.halo{fill:none;stroke:#fde047;stroke-width:8;stroke-linecap:round;}.eyes{fill:#5a4a3a;}.mouth{fill:none;stroke:#c15b5b;stroke-width:2;stroke-linecap:round;}</style>
    <circle cx="75" cy="75" r="60" fill="none"/>
    <path class="halo" d="M 45 30 A 40 40, 0, 0, 1, 105 30"/>
    <circle cx="75" cy="65" r="30" class="skin"/>
    <path class="beard" d="M 50 80 C 40 120, 110 120, 100 80 Q 75 110, 50 80 Z"/>
    <path class="beard" d="M 45 65 C 25 75, 25 90, 45 95 L 50 80 Z"/>
    <path class="beard" d="M 105 65 C 125 75, 125 90, 105 95 L 100 80 Z"/>
    <circle cx="68" cy="65" r="3" class="eyes"/><circle cx="82" cy="65" r="3" class="eyes"/>
    <path class="mouth" d="M 70 78 Q 75 82, 80 78"/>
</svg>
